<mxfile host="app.diagrams.net" agent="Mozilla/5.0 (Windows NT 10.0; Win64; x64) AppleWebKit/537.36 (KHTML, like Gecko) Chrome/126.0.0.0 Safari/537.36 OPR/112.0.0.0" version="24.7.7">
  <diagram id="R2lEEEUBdFMjLlhIrx00" name="Page-1">
    <mxGraphModel dx="1691" dy="478" grid="1" gridSize="10" guides="1" tooltips="1" connect="1" arrows="1" fold="1" page="1" pageScale="1" pageWidth="850" pageHeight="1100" math="0" shadow="0" extFonts="Permanent Marker^https://fonts.googleapis.com/css?family=Permanent+Marker">
      <root>
        <mxCell id="0" />
        <mxCell id="1" parent="0" />
        <mxCell id="C-vyLk0tnHw3VtMMgP7b-1" value="" style="edgeStyle=entityRelationEdgeStyle;endArrow=ERzeroToMany;startArrow=ERone;endFill=1;startFill=0;" parent="1" source="C-vyLk0tnHw3VtMMgP7b-24" target="C-vyLk0tnHw3VtMMgP7b-6" edge="1">
          <mxGeometry width="100" height="100" relative="1" as="geometry">
            <mxPoint x="340" y="720" as="sourcePoint" />
            <mxPoint x="440" y="620" as="targetPoint" />
          </mxGeometry>
        </mxCell>
        <mxCell id="C-vyLk0tnHw3VtMMgP7b-2" value="Services" style="shape=table;startSize=30;container=1;collapsible=1;childLayout=tableLayout;fixedRows=1;rowLines=0;fontStyle=1;align=center;resizeLast=1;" parent="1" vertex="1">
          <mxGeometry x="30" y="150" width="310" height="150" as="geometry" />
        </mxCell>
        <mxCell id="C-vyLk0tnHw3VtMMgP7b-3" value="" style="shape=partialRectangle;collapsible=0;dropTarget=0;pointerEvents=0;fillColor=none;points=[[0,0.5],[1,0.5]];portConstraint=eastwest;top=0;left=0;right=0;bottom=1;" parent="C-vyLk0tnHw3VtMMgP7b-2" vertex="1">
          <mxGeometry y="30" width="310" height="30" as="geometry" />
        </mxCell>
        <mxCell id="C-vyLk0tnHw3VtMMgP7b-4" value="PK" style="shape=partialRectangle;overflow=hidden;connectable=0;fillColor=none;top=0;left=0;bottom=0;right=0;fontStyle=1;" parent="C-vyLk0tnHw3VtMMgP7b-3" vertex="1">
          <mxGeometry width="30" height="30" as="geometry">
            <mxRectangle width="30" height="30" as="alternateBounds" />
          </mxGeometry>
        </mxCell>
        <mxCell id="C-vyLk0tnHw3VtMMgP7b-5" value="category_name" style="shape=partialRectangle;overflow=hidden;connectable=0;fillColor=none;top=0;left=0;bottom=0;right=0;align=left;spacingLeft=6;fontStyle=5;" parent="C-vyLk0tnHw3VtMMgP7b-3" vertex="1">
          <mxGeometry x="30" width="119.99999999999989" height="30" as="geometry">
            <mxRectangle width="119.99999999999989" height="30" as="alternateBounds" />
          </mxGeometry>
        </mxCell>
        <mxCell id="ikL45-JUl0GabrjHITGU-210" value="varchar NOT NULL" style="shape=partialRectangle;overflow=hidden;connectable=0;fillColor=none;top=0;left=0;bottom=0;right=0;align=left;spacingLeft=6;fontStyle=5;" vertex="1" parent="C-vyLk0tnHw3VtMMgP7b-3">
          <mxGeometry x="149.9999999999999" width="160.0000000000001" height="30" as="geometry">
            <mxRectangle width="160.0000000000001" height="30" as="alternateBounds" />
          </mxGeometry>
        </mxCell>
        <mxCell id="C-vyLk0tnHw3VtMMgP7b-6" value="" style="shape=partialRectangle;collapsible=0;dropTarget=0;pointerEvents=0;fillColor=none;points=[[0,0.5],[1,0.5]];portConstraint=eastwest;top=0;left=0;right=0;bottom=0;" parent="C-vyLk0tnHw3VtMMgP7b-2" vertex="1">
          <mxGeometry y="60" width="310" height="30" as="geometry" />
        </mxCell>
        <mxCell id="C-vyLk0tnHw3VtMMgP7b-7" value="" style="shape=partialRectangle;overflow=hidden;connectable=0;fillColor=none;top=0;left=0;bottom=0;right=0;" parent="C-vyLk0tnHw3VtMMgP7b-6" vertex="1">
          <mxGeometry width="30" height="30" as="geometry">
            <mxRectangle width="30" height="30" as="alternateBounds" />
          </mxGeometry>
        </mxCell>
        <mxCell id="C-vyLk0tnHw3VtMMgP7b-8" value="slug" style="shape=partialRectangle;overflow=hidden;connectable=0;fillColor=none;top=0;left=0;bottom=0;right=0;align=left;spacingLeft=6;" parent="C-vyLk0tnHw3VtMMgP7b-6" vertex="1">
          <mxGeometry x="30" width="119.99999999999989" height="30" as="geometry">
            <mxRectangle width="119.99999999999989" height="30" as="alternateBounds" />
          </mxGeometry>
        </mxCell>
        <mxCell id="ikL45-JUl0GabrjHITGU-211" value="varchar" style="shape=partialRectangle;overflow=hidden;connectable=0;fillColor=none;top=0;left=0;bottom=0;right=0;align=left;spacingLeft=6;" vertex="1" parent="C-vyLk0tnHw3VtMMgP7b-6">
          <mxGeometry x="149.9999999999999" width="160.0000000000001" height="30" as="geometry">
            <mxRectangle width="160.0000000000001" height="30" as="alternateBounds" />
          </mxGeometry>
        </mxCell>
        <mxCell id="C-vyLk0tnHw3VtMMgP7b-9" value="" style="shape=partialRectangle;collapsible=0;dropTarget=0;pointerEvents=0;fillColor=none;points=[[0,0.5],[1,0.5]];portConstraint=eastwest;top=0;left=0;right=0;bottom=0;" parent="C-vyLk0tnHw3VtMMgP7b-2" vertex="1">
          <mxGeometry y="90" width="310" height="30" as="geometry" />
        </mxCell>
        <mxCell id="C-vyLk0tnHw3VtMMgP7b-10" value="" style="shape=partialRectangle;overflow=hidden;connectable=0;fillColor=none;top=0;left=0;bottom=0;right=0;" parent="C-vyLk0tnHw3VtMMgP7b-9" vertex="1">
          <mxGeometry width="30" height="30" as="geometry">
            <mxRectangle width="30" height="30" as="alternateBounds" />
          </mxGeometry>
        </mxCell>
        <mxCell id="C-vyLk0tnHw3VtMMgP7b-11" value="image NOT NULL" style="shape=partialRectangle;overflow=hidden;connectable=0;fillColor=none;top=0;left=0;bottom=0;right=0;align=left;spacingLeft=6;" parent="C-vyLk0tnHw3VtMMgP7b-9" vertex="1">
          <mxGeometry x="30" width="119.99999999999989" height="30" as="geometry">
            <mxRectangle width="119.99999999999989" height="30" as="alternateBounds" />
          </mxGeometry>
        </mxCell>
        <mxCell id="ikL45-JUl0GabrjHITGU-212" value="varchar" style="shape=partialRectangle;overflow=hidden;connectable=0;fillColor=none;top=0;left=0;bottom=0;right=0;align=left;spacingLeft=6;" vertex="1" parent="C-vyLk0tnHw3VtMMgP7b-9">
          <mxGeometry x="149.9999999999999" width="160.0000000000001" height="30" as="geometry">
            <mxRectangle width="160.0000000000001" height="30" as="alternateBounds" />
          </mxGeometry>
        </mxCell>
        <mxCell id="ikL45-JUl0GabrjHITGU-189" style="shape=partialRectangle;collapsible=0;dropTarget=0;pointerEvents=0;fillColor=none;points=[[0,0.5],[1,0.5]];portConstraint=eastwest;top=0;left=0;right=0;bottom=0;" vertex="1" parent="C-vyLk0tnHw3VtMMgP7b-2">
          <mxGeometry y="120" width="310" height="30" as="geometry" />
        </mxCell>
        <mxCell id="ikL45-JUl0GabrjHITGU-190" style="shape=partialRectangle;overflow=hidden;connectable=0;fillColor=none;top=0;left=0;bottom=0;right=0;" vertex="1" parent="ikL45-JUl0GabrjHITGU-189">
          <mxGeometry width="30" height="30" as="geometry">
            <mxRectangle width="30" height="30" as="alternateBounds" />
          </mxGeometry>
        </mxCell>
        <mxCell id="ikL45-JUl0GabrjHITGU-191" value="description" style="shape=partialRectangle;overflow=hidden;connectable=0;fillColor=none;top=0;left=0;bottom=0;right=0;align=left;spacingLeft=6;" vertex="1" parent="ikL45-JUl0GabrjHITGU-189">
          <mxGeometry x="30" width="119.99999999999989" height="30" as="geometry">
            <mxRectangle width="119.99999999999989" height="30" as="alternateBounds" />
          </mxGeometry>
        </mxCell>
        <mxCell id="ikL45-JUl0GabrjHITGU-213" value="varchar" style="shape=partialRectangle;overflow=hidden;connectable=0;fillColor=none;top=0;left=0;bottom=0;right=0;align=left;spacingLeft=6;" vertex="1" parent="ikL45-JUl0GabrjHITGU-189">
          <mxGeometry x="149.9999999999999" width="160.0000000000001" height="30" as="geometry">
            <mxRectangle width="160.0000000000001" height="30" as="alternateBounds" />
          </mxGeometry>
        </mxCell>
        <mxCell id="ikL45-JUl0GabrjHITGU-129" value="Projects" style="shape=table;startSize=30;container=1;collapsible=1;childLayout=tableLayout;fixedRows=1;rowLines=0;fontStyle=1;align=center;resizeLast=1;html=1;" vertex="1" parent="1">
          <mxGeometry x="400" y="290" width="360" height="240" as="geometry" />
        </mxCell>
        <mxCell id="ikL45-JUl0GabrjHITGU-130" value="" style="shape=tableRow;horizontal=0;startSize=0;swimlaneHead=0;swimlaneBody=0;fillColor=none;collapsible=0;dropTarget=0;points=[[0,0.5],[1,0.5]];portConstraint=eastwest;top=0;left=0;right=0;bottom=1;" vertex="1" parent="ikL45-JUl0GabrjHITGU-129">
          <mxGeometry y="30" width="360" height="30" as="geometry" />
        </mxCell>
        <mxCell id="ikL45-JUl0GabrjHITGU-131" value="PK" style="shape=partialRectangle;connectable=0;fillColor=none;top=0;left=0;bottom=0;right=0;fontStyle=1;overflow=hidden;whiteSpace=wrap;html=1;" vertex="1" parent="ikL45-JUl0GabrjHITGU-130">
          <mxGeometry width="30" height="30" as="geometry">
            <mxRectangle width="30" height="30" as="alternateBounds" />
          </mxGeometry>
        </mxCell>
        <mxCell id="ikL45-JUl0GabrjHITGU-132" value="id&amp;nbsp;" style="shape=partialRectangle;connectable=0;fillColor=none;top=0;left=0;bottom=0;right=0;align=left;spacingLeft=6;fontStyle=5;overflow=hidden;whiteSpace=wrap;html=1;" vertex="1" parent="ikL45-JUl0GabrjHITGU-130">
          <mxGeometry x="30" width="100" height="30" as="geometry">
            <mxRectangle width="100" height="30" as="alternateBounds" />
          </mxGeometry>
        </mxCell>
        <mxCell id="ikL45-JUl0GabrjHITGU-202" value="&lt;span style=&quot;font-weight: 400; box-sizing: inherit; font-family: Consolas, Menlo, &amp;quot;courier new&amp;quot;, monospace; font-size: 15px; background-color: rgb(255, 255, 255);&quot; class=&quot;sqlkeywordcolor&quot;&gt;Int&lt;/span&gt;&lt;span style=&quot;font-weight: 400; box-sizing: inherit; color: mediumblue; font-family: Consolas, Menlo, &amp;quot;courier new&amp;quot;, monospace; font-size: 15px; background-color: rgb(255, 255, 255);&quot; class=&quot;sqlkeywordcolor&quot;&gt;&amp;nbsp;NOT&lt;/span&gt;&lt;span style=&quot;font-weight: 400; font-family: Consolas, Menlo, &amp;quot;courier new&amp;quot;, monospace; font-size: 15px; background-color: rgb(255, 255, 255);&quot;&gt;&amp;nbsp;&lt;/span&gt;&lt;span style=&quot;font-weight: 400; box-sizing: inherit; color: mediumblue; font-family: Consolas, Menlo, &amp;quot;courier new&amp;quot;, monospace; font-size: 15px; background-color: rgb(255, 255, 255);&quot; class=&quot;sqlkeywordcolor&quot;&gt;NULL&lt;/span&gt;&lt;span style=&quot;font-weight: 400; font-family: Consolas, Menlo, &amp;quot;courier new&amp;quot;, monospace; font-size: 15px; background-color: rgb(255, 255, 255);&quot;&gt;&amp;nbsp;AUTOINCREMENT&lt;/span&gt;" style="shape=partialRectangle;connectable=0;fillColor=none;top=0;left=0;bottom=0;right=0;align=left;spacingLeft=6;fontStyle=5;overflow=hidden;whiteSpace=wrap;html=1;" vertex="1" parent="ikL45-JUl0GabrjHITGU-130">
          <mxGeometry x="130" width="230" height="30" as="geometry">
            <mxRectangle width="230" height="30" as="alternateBounds" />
          </mxGeometry>
        </mxCell>
        <mxCell id="ikL45-JUl0GabrjHITGU-180" style="shape=tableRow;horizontal=0;startSize=0;swimlaneHead=0;swimlaneBody=0;fillColor=none;collapsible=0;dropTarget=0;points=[[0,0.5],[1,0.5]];portConstraint=eastwest;top=0;left=0;right=0;bottom=0;" vertex="1" parent="ikL45-JUl0GabrjHITGU-129">
          <mxGeometry y="60" width="360" height="30" as="geometry" />
        </mxCell>
        <mxCell id="ikL45-JUl0GabrjHITGU-181" value="FK" style="shape=partialRectangle;connectable=0;fillColor=none;top=0;left=0;bottom=0;right=0;editable=1;overflow=hidden;whiteSpace=wrap;html=1;" vertex="1" parent="ikL45-JUl0GabrjHITGU-180">
          <mxGeometry width="30" height="30" as="geometry">
            <mxRectangle width="30" height="30" as="alternateBounds" />
          </mxGeometry>
        </mxCell>
        <mxCell id="ikL45-JUl0GabrjHITGU-182" value="category_name" style="shape=partialRectangle;connectable=0;fillColor=none;top=0;left=0;bottom=0;right=0;align=left;spacingLeft=6;overflow=hidden;whiteSpace=wrap;html=1;" vertex="1" parent="ikL45-JUl0GabrjHITGU-180">
          <mxGeometry x="30" width="100" height="30" as="geometry">
            <mxRectangle width="100" height="30" as="alternateBounds" />
          </mxGeometry>
        </mxCell>
        <mxCell id="ikL45-JUl0GabrjHITGU-203" value="&lt;font face=&quot;Consolas, Menlo, courier new, monospace&quot;&gt;&lt;span style=&quot;font-size: 15px; background-color: rgb(255, 255, 255);&quot;&gt;varchar&amp;nbsp;&lt;/span&gt;&lt;/font&gt;&lt;span style=&quot;box-sizing: inherit; color: mediumblue; font-family: Consolas, Menlo, &amp;quot;courier new&amp;quot;, monospace; font-size: 15px; background-color: rgb(255, 255, 255);&quot; class=&quot;sqlkeywordcolor&quot;&gt;NOT&lt;/span&gt;&lt;span style=&quot;font-family: Consolas, Menlo, &amp;quot;courier new&amp;quot;, monospace; font-size: 15px; background-color: rgb(255, 255, 255);&quot;&gt;&amp;nbsp;&lt;/span&gt;&lt;span style=&quot;box-sizing: inherit; color: mediumblue; font-family: Consolas, Menlo, &amp;quot;courier new&amp;quot;, monospace; font-size: 15px; background-color: rgb(255, 255, 255);&quot; class=&quot;sqlkeywordcolor&quot;&gt;NULL&lt;/span&gt;" style="shape=partialRectangle;connectable=0;fillColor=none;top=0;left=0;bottom=0;right=0;align=left;spacingLeft=6;overflow=hidden;whiteSpace=wrap;html=1;" vertex="1" parent="ikL45-JUl0GabrjHITGU-180">
          <mxGeometry x="130" width="230" height="30" as="geometry">
            <mxRectangle width="230" height="30" as="alternateBounds" />
          </mxGeometry>
        </mxCell>
        <mxCell id="ikL45-JUl0GabrjHITGU-133" value="" style="shape=tableRow;horizontal=0;startSize=0;swimlaneHead=0;swimlaneBody=0;fillColor=none;collapsible=0;dropTarget=0;points=[[0,0.5],[1,0.5]];portConstraint=eastwest;top=0;left=0;right=0;bottom=0;" vertex="1" parent="ikL45-JUl0GabrjHITGU-129">
          <mxGeometry y="90" width="360" height="30" as="geometry" />
        </mxCell>
        <mxCell id="ikL45-JUl0GabrjHITGU-134" value="" style="shape=partialRectangle;connectable=0;fillColor=none;top=0;left=0;bottom=0;right=0;editable=1;overflow=hidden;whiteSpace=wrap;html=1;" vertex="1" parent="ikL45-JUl0GabrjHITGU-133">
          <mxGeometry width="30" height="30" as="geometry">
            <mxRectangle width="30" height="30" as="alternateBounds" />
          </mxGeometry>
        </mxCell>
        <mxCell id="ikL45-JUl0GabrjHITGU-135" value="title&amp;nbsp;" style="shape=partialRectangle;connectable=0;fillColor=none;top=0;left=0;bottom=0;right=0;align=left;spacingLeft=6;overflow=hidden;whiteSpace=wrap;html=1;" vertex="1" parent="ikL45-JUl0GabrjHITGU-133">
          <mxGeometry x="30" width="100" height="30" as="geometry">
            <mxRectangle width="100" height="30" as="alternateBounds" />
          </mxGeometry>
        </mxCell>
        <mxCell id="ikL45-JUl0GabrjHITGU-204" value="&lt;font face=&quot;Consolas, Menlo, courier new, monospace&quot;&gt;&lt;span style=&quot;font-size: 15px; background-color: rgb(255, 255, 255);&quot;&gt;varchar&amp;nbsp;&lt;/span&gt;&lt;/font&gt;&lt;span style=&quot;box-sizing: inherit; color: mediumblue; font-family: Consolas, Menlo, &amp;quot;courier new&amp;quot;, monospace; font-size: 15px; background-color: rgb(255, 255, 255);&quot; class=&quot;sqlkeywordcolor&quot;&gt;NOT&lt;/span&gt;&lt;span style=&quot;font-family: Consolas, Menlo, &amp;quot;courier new&amp;quot;, monospace; font-size: 15px; background-color: rgb(255, 255, 255);&quot;&gt;&amp;nbsp;&lt;/span&gt;&lt;span style=&quot;box-sizing: inherit; color: mediumblue; font-family: Consolas, Menlo, &amp;quot;courier new&amp;quot;, monospace; font-size: 15px; background-color: rgb(255, 255, 255);&quot; class=&quot;sqlkeywordcolor&quot;&gt;NULL&lt;/span&gt;" style="shape=partialRectangle;connectable=0;fillColor=none;top=0;left=0;bottom=0;right=0;align=left;spacingLeft=6;overflow=hidden;whiteSpace=wrap;html=1;" vertex="1" parent="ikL45-JUl0GabrjHITGU-133">
          <mxGeometry x="130" width="230" height="30" as="geometry">
            <mxRectangle width="230" height="30" as="alternateBounds" />
          </mxGeometry>
        </mxCell>
        <mxCell id="ikL45-JUl0GabrjHITGU-136" value="" style="shape=tableRow;horizontal=0;startSize=0;swimlaneHead=0;swimlaneBody=0;fillColor=none;collapsible=0;dropTarget=0;points=[[0,0.5],[1,0.5]];portConstraint=eastwest;top=0;left=0;right=0;bottom=0;" vertex="1" parent="ikL45-JUl0GabrjHITGU-129">
          <mxGeometry y="120" width="360" height="30" as="geometry" />
        </mxCell>
        <mxCell id="ikL45-JUl0GabrjHITGU-137" value="" style="shape=partialRectangle;connectable=0;fillColor=none;top=0;left=0;bottom=0;right=0;editable=1;overflow=hidden;whiteSpace=wrap;html=1;" vertex="1" parent="ikL45-JUl0GabrjHITGU-136">
          <mxGeometry width="30" height="30" as="geometry">
            <mxRectangle width="30" height="30" as="alternateBounds" />
          </mxGeometry>
        </mxCell>
        <mxCell id="ikL45-JUl0GabrjHITGU-138" value="slug" style="shape=partialRectangle;connectable=0;fillColor=none;top=0;left=0;bottom=0;right=0;align=left;spacingLeft=6;overflow=hidden;whiteSpace=wrap;html=1;" vertex="1" parent="ikL45-JUl0GabrjHITGU-136">
          <mxGeometry x="30" width="100" height="30" as="geometry">
            <mxRectangle width="100" height="30" as="alternateBounds" />
          </mxGeometry>
        </mxCell>
        <mxCell id="ikL45-JUl0GabrjHITGU-205" value="&lt;font face=&quot;Consolas, Menlo, courier new, monospace&quot;&gt;&lt;span style=&quot;font-size: 15px; background-color: rgb(255, 255, 255);&quot;&gt;varchar&lt;/span&gt;&lt;/font&gt;" style="shape=partialRectangle;connectable=0;fillColor=none;top=0;left=0;bottom=0;right=0;align=left;spacingLeft=6;overflow=hidden;whiteSpace=wrap;html=1;" vertex="1" parent="ikL45-JUl0GabrjHITGU-136">
          <mxGeometry x="130" width="230" height="30" as="geometry">
            <mxRectangle width="230" height="30" as="alternateBounds" />
          </mxGeometry>
        </mxCell>
        <mxCell id="ikL45-JUl0GabrjHITGU-139" value="" style="shape=tableRow;horizontal=0;startSize=0;swimlaneHead=0;swimlaneBody=0;fillColor=none;collapsible=0;dropTarget=0;points=[[0,0.5],[1,0.5]];portConstraint=eastwest;top=0;left=0;right=0;bottom=0;" vertex="1" parent="ikL45-JUl0GabrjHITGU-129">
          <mxGeometry y="150" width="360" height="30" as="geometry" />
        </mxCell>
        <mxCell id="ikL45-JUl0GabrjHITGU-140" value="" style="shape=partialRectangle;connectable=0;fillColor=none;top=0;left=0;bottom=0;right=0;editable=1;overflow=hidden;whiteSpace=wrap;html=1;" vertex="1" parent="ikL45-JUl0GabrjHITGU-139">
          <mxGeometry width="30" height="30" as="geometry">
            <mxRectangle width="30" height="30" as="alternateBounds" />
          </mxGeometry>
        </mxCell>
        <mxCell id="ikL45-JUl0GabrjHITGU-141" value="description&amp;nbsp;" style="shape=partialRectangle;connectable=0;fillColor=none;top=0;left=0;bottom=0;right=0;align=left;spacingLeft=6;overflow=hidden;whiteSpace=wrap;html=1;" vertex="1" parent="ikL45-JUl0GabrjHITGU-139">
          <mxGeometry x="30" width="100" height="30" as="geometry">
            <mxRectangle width="100" height="30" as="alternateBounds" />
          </mxGeometry>
        </mxCell>
        <mxCell id="ikL45-JUl0GabrjHITGU-206" value="&lt;font face=&quot;Consolas, Menlo, courier new, monospace&quot;&gt;&lt;span style=&quot;font-size: 15px; background-color: rgb(255, 255, 255);&quot;&gt;varchar&lt;/span&gt;&lt;/font&gt;" style="shape=partialRectangle;connectable=0;fillColor=none;top=0;left=0;bottom=0;right=0;align=left;spacingLeft=6;overflow=hidden;whiteSpace=wrap;html=1;" vertex="1" parent="ikL45-JUl0GabrjHITGU-139">
          <mxGeometry x="130" width="230" height="30" as="geometry">
            <mxRectangle width="230" height="30" as="alternateBounds" />
          </mxGeometry>
        </mxCell>
        <mxCell id="ikL45-JUl0GabrjHITGU-186" style="shape=tableRow;horizontal=0;startSize=0;swimlaneHead=0;swimlaneBody=0;fillColor=none;collapsible=0;dropTarget=0;points=[[0,0.5],[1,0.5]];portConstraint=eastwest;top=0;left=0;right=0;bottom=0;" vertex="1" parent="ikL45-JUl0GabrjHITGU-129">
          <mxGeometry y="180" width="360" height="30" as="geometry" />
        </mxCell>
        <mxCell id="ikL45-JUl0GabrjHITGU-187" style="shape=partialRectangle;connectable=0;fillColor=none;top=0;left=0;bottom=0;right=0;editable=1;overflow=hidden;whiteSpace=wrap;html=1;" vertex="1" parent="ikL45-JUl0GabrjHITGU-186">
          <mxGeometry width="30" height="30" as="geometry">
            <mxRectangle width="30" height="30" as="alternateBounds" />
          </mxGeometry>
        </mxCell>
        <mxCell id="ikL45-JUl0GabrjHITGU-188" value="image&amp;nbsp;" style="shape=partialRectangle;connectable=0;fillColor=none;top=0;left=0;bottom=0;right=0;align=left;spacingLeft=6;overflow=hidden;whiteSpace=wrap;html=1;" vertex="1" parent="ikL45-JUl0GabrjHITGU-186">
          <mxGeometry x="30" width="100" height="30" as="geometry">
            <mxRectangle width="100" height="30" as="alternateBounds" />
          </mxGeometry>
        </mxCell>
        <mxCell id="ikL45-JUl0GabrjHITGU-207" value="&lt;font face=&quot;Consolas, Menlo, courier new, monospace&quot;&gt;&lt;span style=&quot;font-size: 15px; background-color: rgb(255, 255, 255);&quot;&gt;varchar&amp;nbsp;&lt;/span&gt;&lt;/font&gt;&lt;span style=&quot;box-sizing: inherit; color: mediumblue; font-family: Consolas, Menlo, &amp;quot;courier new&amp;quot;, monospace; font-size: 15px; background-color: rgb(255, 255, 255);&quot; class=&quot;sqlkeywordcolor&quot;&gt;NOT&lt;/span&gt;&lt;span style=&quot;font-family: Consolas, Menlo, &amp;quot;courier new&amp;quot;, monospace; font-size: 15px; background-color: rgb(255, 255, 255);&quot;&gt;&amp;nbsp;&lt;/span&gt;&lt;span style=&quot;box-sizing: inherit; color: mediumblue; font-family: Consolas, Menlo, &amp;quot;courier new&amp;quot;, monospace; font-size: 15px; background-color: rgb(255, 255, 255);&quot; class=&quot;sqlkeywordcolor&quot;&gt;NULL&lt;/span&gt;" style="shape=partialRectangle;connectable=0;fillColor=none;top=0;left=0;bottom=0;right=0;align=left;spacingLeft=6;overflow=hidden;whiteSpace=wrap;html=1;" vertex="1" parent="ikL45-JUl0GabrjHITGU-186">
          <mxGeometry x="130" width="230" height="30" as="geometry">
            <mxRectangle width="230" height="30" as="alternateBounds" />
          </mxGeometry>
        </mxCell>
        <mxCell id="ikL45-JUl0GabrjHITGU-156" style="shape=tableRow;horizontal=0;startSize=0;swimlaneHead=0;swimlaneBody=0;fillColor=none;collapsible=0;dropTarget=0;points=[[0,0.5],[1,0.5]];portConstraint=eastwest;top=0;left=0;right=0;bottom=0;" vertex="1" parent="ikL45-JUl0GabrjHITGU-129">
          <mxGeometry y="210" width="360" height="30" as="geometry" />
        </mxCell>
        <mxCell id="ikL45-JUl0GabrjHITGU-157" style="shape=partialRectangle;connectable=0;fillColor=none;top=0;left=0;bottom=0;right=0;editable=1;overflow=hidden;whiteSpace=wrap;html=1;" vertex="1" parent="ikL45-JUl0GabrjHITGU-156">
          <mxGeometry width="30" height="30" as="geometry">
            <mxRectangle width="30" height="30" as="alternateBounds" />
          </mxGeometry>
        </mxCell>
        <mxCell id="ikL45-JUl0GabrjHITGU-158" value="completedAt" style="shape=partialRectangle;connectable=0;fillColor=none;top=0;left=0;bottom=0;right=0;align=left;spacingLeft=6;overflow=hidden;whiteSpace=wrap;html=1;" vertex="1" parent="ikL45-JUl0GabrjHITGU-156">
          <mxGeometry x="30" width="100" height="30" as="geometry">
            <mxRectangle width="100" height="30" as="alternateBounds" />
          </mxGeometry>
        </mxCell>
        <mxCell id="ikL45-JUl0GabrjHITGU-208" value="date" style="shape=partialRectangle;connectable=0;fillColor=none;top=0;left=0;bottom=0;right=0;align=left;spacingLeft=6;overflow=hidden;whiteSpace=wrap;html=1;" vertex="1" parent="ikL45-JUl0GabrjHITGU-156">
          <mxGeometry x="130" width="230" height="30" as="geometry">
            <mxRectangle width="230" height="30" as="alternateBounds" />
          </mxGeometry>
        </mxCell>
        <mxCell id="ikL45-JUl0GabrjHITGU-209" value="" style="edgeStyle=entityRelationEdgeStyle;fontSize=12;html=1;endArrow=ERoneToMany;rounded=0;exitX=1;exitY=0.5;exitDx=0;exitDy=0;entryX=0;entryY=0.5;entryDx=0;entryDy=0;" edge="1" parent="1" source="C-vyLk0tnHw3VtMMgP7b-3" target="ikL45-JUl0GabrjHITGU-180">
          <mxGeometry width="100" height="100" relative="1" as="geometry">
            <mxPoint x="310" y="360" as="sourcePoint" />
            <mxPoint x="250" y="320" as="targetPoint" />
          </mxGeometry>
        </mxCell>
        <mxCell id="ikL45-JUl0GabrjHITGU-228" value="Table" style="shape=table;startSize=30;container=1;collapsible=1;childLayout=tableLayout;fixedRows=1;rowLines=0;fontStyle=1;align=center;resizeLast=1;html=1;" vertex="1" parent="1">
          <mxGeometry x="-10" y="350" width="360" height="180" as="geometry" />
        </mxCell>
        <mxCell id="ikL45-JUl0GabrjHITGU-229" value="" style="shape=tableRow;horizontal=0;startSize=0;swimlaneHead=0;swimlaneBody=0;fillColor=none;collapsible=0;dropTarget=0;points=[[0,0.5],[1,0.5]];portConstraint=eastwest;top=0;left=0;right=0;bottom=1;" vertex="1" parent="ikL45-JUl0GabrjHITGU-228">
          <mxGeometry y="30" width="360" height="30" as="geometry" />
        </mxCell>
        <mxCell id="ikL45-JUl0GabrjHITGU-230" value="PK" style="shape=partialRectangle;connectable=0;fillColor=none;top=0;left=0;bottom=0;right=0;fontStyle=1;overflow=hidden;whiteSpace=wrap;html=1;" vertex="1" parent="ikL45-JUl0GabrjHITGU-229">
          <mxGeometry width="30" height="30" as="geometry">
            <mxRectangle width="30" height="30" as="alternateBounds" />
          </mxGeometry>
        </mxCell>
        <mxCell id="ikL45-JUl0GabrjHITGU-231" value="id" style="shape=partialRectangle;connectable=0;fillColor=none;top=0;left=0;bottom=0;right=0;align=left;spacingLeft=6;fontStyle=5;overflow=hidden;whiteSpace=wrap;html=1;" vertex="1" parent="ikL45-JUl0GabrjHITGU-229">
          <mxGeometry x="30" width="90" height="30" as="geometry">
            <mxRectangle width="90" height="30" as="alternateBounds" />
          </mxGeometry>
        </mxCell>
        <mxCell id="ikL45-JUl0GabrjHITGU-244" value="&lt;span style=&quot;font-weight: 400; box-sizing: inherit; font-family: Consolas, Menlo, &amp;quot;courier new&amp;quot;, monospace; font-size: 15px; background-color: rgb(255, 255, 255);&quot; class=&quot;sqlkeywordcolor&quot;&gt;Int&lt;/span&gt;&lt;span style=&quot;font-weight: 400; box-sizing: inherit; color: mediumblue; font-family: Consolas, Menlo, &amp;quot;courier new&amp;quot;, monospace; font-size: 15px; background-color: rgb(255, 255, 255);&quot; class=&quot;sqlkeywordcolor&quot;&gt;&amp;nbsp;NOT&lt;/span&gt;&lt;span style=&quot;font-weight: 400; font-family: Consolas, Menlo, &amp;quot;courier new&amp;quot;, monospace; font-size: 15px; background-color: rgb(255, 255, 255);&quot;&gt;&amp;nbsp;&lt;/span&gt;&lt;span style=&quot;font-weight: 400; box-sizing: inherit; color: mediumblue; font-family: Consolas, Menlo, &amp;quot;courier new&amp;quot;, monospace; font-size: 15px; background-color: rgb(255, 255, 255);&quot; class=&quot;sqlkeywordcolor&quot;&gt;NULL&lt;/span&gt;&lt;span style=&quot;font-weight: 400; font-family: Consolas, Menlo, &amp;quot;courier new&amp;quot;, monospace; font-size: 15px; background-color: rgb(255, 255, 255);&quot;&gt;&amp;nbsp;AUTOINCREMENT&lt;/span&gt;" style="shape=partialRectangle;connectable=0;fillColor=none;top=0;left=0;bottom=0;right=0;align=left;spacingLeft=6;fontStyle=5;overflow=hidden;whiteSpace=wrap;html=1;" vertex="1" parent="ikL45-JUl0GabrjHITGU-229">
          <mxGeometry x="120" width="240" height="30" as="geometry">
            <mxRectangle width="240" height="30" as="alternateBounds" />
          </mxGeometry>
        </mxCell>
        <mxCell id="ikL45-JUl0GabrjHITGU-248" style="shape=tableRow;horizontal=0;startSize=0;swimlaneHead=0;swimlaneBody=0;fillColor=none;collapsible=0;dropTarget=0;points=[[0,0.5],[1,0.5]];portConstraint=eastwest;top=0;left=0;right=0;bottom=0;" vertex="1" parent="ikL45-JUl0GabrjHITGU-228">
          <mxGeometry y="60" width="360" height="30" as="geometry" />
        </mxCell>
        <mxCell id="ikL45-JUl0GabrjHITGU-249" style="shape=partialRectangle;connectable=0;fillColor=none;top=0;left=0;bottom=0;right=0;editable=1;overflow=hidden;whiteSpace=wrap;html=1;" vertex="1" parent="ikL45-JUl0GabrjHITGU-248">
          <mxGeometry width="30" height="30" as="geometry">
            <mxRectangle width="30" height="30" as="alternateBounds" />
          </mxGeometry>
        </mxCell>
        <mxCell id="ikL45-JUl0GabrjHITGU-250" value="user_name" style="shape=partialRectangle;connectable=0;fillColor=none;top=0;left=0;bottom=0;right=0;align=left;spacingLeft=6;overflow=hidden;whiteSpace=wrap;html=1;" vertex="1" parent="ikL45-JUl0GabrjHITGU-248">
          <mxGeometry x="30" width="90" height="30" as="geometry">
            <mxRectangle width="90" height="30" as="alternateBounds" />
          </mxGeometry>
        </mxCell>
        <mxCell id="ikL45-JUl0GabrjHITGU-251" value="varchar&amp;nbsp;&lt;span style=&quot;box-sizing: inherit; color: mediumblue; font-family: Consolas, Menlo, &amp;quot;courier new&amp;quot;, monospace; font-size: 15px; background-color: rgb(255, 255, 255);&quot; class=&quot;sqlkeywordcolor&quot;&gt;NOT&lt;/span&gt;&lt;span style=&quot;font-family: Consolas, Menlo, &amp;quot;courier new&amp;quot;, monospace; font-size: 15px; background-color: rgb(255, 255, 255);&quot;&gt;&amp;nbsp;&lt;/span&gt;&lt;span style=&quot;box-sizing: inherit; color: mediumblue; font-family: Consolas, Menlo, &amp;quot;courier new&amp;quot;, monospace; font-size: 15px; background-color: rgb(255, 255, 255);&quot; class=&quot;sqlkeywordcolor&quot;&gt;NULL&lt;/span&gt;" style="shape=partialRectangle;connectable=0;fillColor=none;top=0;left=0;bottom=0;right=0;align=left;spacingLeft=6;overflow=hidden;whiteSpace=wrap;html=1;" vertex="1" parent="ikL45-JUl0GabrjHITGU-248">
          <mxGeometry x="120" width="240" height="30" as="geometry">
            <mxRectangle width="240" height="30" as="alternateBounds" />
          </mxGeometry>
        </mxCell>
        <mxCell id="ikL45-JUl0GabrjHITGU-232" value="" style="shape=tableRow;horizontal=0;startSize=0;swimlaneHead=0;swimlaneBody=0;fillColor=none;collapsible=0;dropTarget=0;points=[[0,0.5],[1,0.5]];portConstraint=eastwest;top=0;left=0;right=0;bottom=0;" vertex="1" parent="ikL45-JUl0GabrjHITGU-228">
          <mxGeometry y="90" width="360" height="30" as="geometry" />
        </mxCell>
        <mxCell id="ikL45-JUl0GabrjHITGU-233" value="" style="shape=partialRectangle;connectable=0;fillColor=none;top=0;left=0;bottom=0;right=0;editable=1;overflow=hidden;whiteSpace=wrap;html=1;" vertex="1" parent="ikL45-JUl0GabrjHITGU-232">
          <mxGeometry width="30" height="30" as="geometry">
            <mxRectangle width="30" height="30" as="alternateBounds" />
          </mxGeometry>
        </mxCell>
        <mxCell id="ikL45-JUl0GabrjHITGU-234" value="name" style="shape=partialRectangle;connectable=0;fillColor=none;top=0;left=0;bottom=0;right=0;align=left;spacingLeft=6;overflow=hidden;whiteSpace=wrap;html=1;" vertex="1" parent="ikL45-JUl0GabrjHITGU-232">
          <mxGeometry x="30" width="90" height="30" as="geometry">
            <mxRectangle width="90" height="30" as="alternateBounds" />
          </mxGeometry>
        </mxCell>
        <mxCell id="ikL45-JUl0GabrjHITGU-245" value="varchar&amp;nbsp;&lt;span style=&quot;box-sizing: inherit; color: mediumblue; font-family: Consolas, Menlo, &amp;quot;courier new&amp;quot;, monospace; font-size: 15px; background-color: rgb(255, 255, 255);&quot; class=&quot;sqlkeywordcolor&quot;&gt;NOT&lt;/span&gt;&lt;span style=&quot;font-family: Consolas, Menlo, &amp;quot;courier new&amp;quot;, monospace; font-size: 15px; background-color: rgb(255, 255, 255);&quot;&gt;&amp;nbsp;&lt;/span&gt;&lt;span style=&quot;box-sizing: inherit; color: mediumblue; font-family: Consolas, Menlo, &amp;quot;courier new&amp;quot;, monospace; font-size: 15px; background-color: rgb(255, 255, 255);&quot; class=&quot;sqlkeywordcolor&quot;&gt;NULL&lt;/span&gt;" style="shape=partialRectangle;connectable=0;fillColor=none;top=0;left=0;bottom=0;right=0;align=left;spacingLeft=6;overflow=hidden;whiteSpace=wrap;html=1;" vertex="1" parent="ikL45-JUl0GabrjHITGU-232">
          <mxGeometry x="120" width="240" height="30" as="geometry">
            <mxRectangle width="240" height="30" as="alternateBounds" />
          </mxGeometry>
        </mxCell>
        <mxCell id="ikL45-JUl0GabrjHITGU-235" value="" style="shape=tableRow;horizontal=0;startSize=0;swimlaneHead=0;swimlaneBody=0;fillColor=none;collapsible=0;dropTarget=0;points=[[0,0.5],[1,0.5]];portConstraint=eastwest;top=0;left=0;right=0;bottom=0;" vertex="1" parent="ikL45-JUl0GabrjHITGU-228">
          <mxGeometry y="120" width="360" height="30" as="geometry" />
        </mxCell>
        <mxCell id="ikL45-JUl0GabrjHITGU-236" value="" style="shape=partialRectangle;connectable=0;fillColor=none;top=0;left=0;bottom=0;right=0;editable=1;overflow=hidden;whiteSpace=wrap;html=1;" vertex="1" parent="ikL45-JUl0GabrjHITGU-235">
          <mxGeometry width="30" height="30" as="geometry">
            <mxRectangle width="30" height="30" as="alternateBounds" />
          </mxGeometry>
        </mxCell>
        <mxCell id="ikL45-JUl0GabrjHITGU-237" value="surname" style="shape=partialRectangle;connectable=0;fillColor=none;top=0;left=0;bottom=0;right=0;align=left;spacingLeft=6;overflow=hidden;whiteSpace=wrap;html=1;" vertex="1" parent="ikL45-JUl0GabrjHITGU-235">
          <mxGeometry x="30" width="90" height="30" as="geometry">
            <mxRectangle width="90" height="30" as="alternateBounds" />
          </mxGeometry>
        </mxCell>
        <mxCell id="ikL45-JUl0GabrjHITGU-246" value="varchar&amp;nbsp;&lt;span style=&quot;box-sizing: inherit; color: mediumblue; font-family: Consolas, Menlo, &amp;quot;courier new&amp;quot;, monospace; font-size: 15px; background-color: rgb(255, 255, 255);&quot; class=&quot;sqlkeywordcolor&quot;&gt;NOT&lt;/span&gt;&lt;span style=&quot;font-family: Consolas, Menlo, &amp;quot;courier new&amp;quot;, monospace; font-size: 15px; background-color: rgb(255, 255, 255);&quot;&gt;&amp;nbsp;&lt;/span&gt;&lt;span style=&quot;box-sizing: inherit; color: mediumblue; font-family: Consolas, Menlo, &amp;quot;courier new&amp;quot;, monospace; font-size: 15px; background-color: rgb(255, 255, 255);&quot; class=&quot;sqlkeywordcolor&quot;&gt;NULL&lt;/span&gt;" style="shape=partialRectangle;connectable=0;fillColor=none;top=0;left=0;bottom=0;right=0;align=left;spacingLeft=6;overflow=hidden;whiteSpace=wrap;html=1;" vertex="1" parent="ikL45-JUl0GabrjHITGU-235">
          <mxGeometry x="120" width="240" height="30" as="geometry">
            <mxRectangle width="240" height="30" as="alternateBounds" />
          </mxGeometry>
        </mxCell>
        <mxCell id="ikL45-JUl0GabrjHITGU-238" value="" style="shape=tableRow;horizontal=0;startSize=0;swimlaneHead=0;swimlaneBody=0;fillColor=none;collapsible=0;dropTarget=0;points=[[0,0.5],[1,0.5]];portConstraint=eastwest;top=0;left=0;right=0;bottom=0;" vertex="1" parent="ikL45-JUl0GabrjHITGU-228">
          <mxGeometry y="150" width="360" height="30" as="geometry" />
        </mxCell>
        <mxCell id="ikL45-JUl0GabrjHITGU-239" value="" style="shape=partialRectangle;connectable=0;fillColor=none;top=0;left=0;bottom=0;right=0;editable=1;overflow=hidden;whiteSpace=wrap;html=1;" vertex="1" parent="ikL45-JUl0GabrjHITGU-238">
          <mxGeometry width="30" height="30" as="geometry">
            <mxRectangle width="30" height="30" as="alternateBounds" />
          </mxGeometry>
        </mxCell>
        <mxCell id="ikL45-JUl0GabrjHITGU-240" value="email" style="shape=partialRectangle;connectable=0;fillColor=none;top=0;left=0;bottom=0;right=0;align=left;spacingLeft=6;overflow=hidden;whiteSpace=wrap;html=1;" vertex="1" parent="ikL45-JUl0GabrjHITGU-238">
          <mxGeometry x="30" width="90" height="30" as="geometry">
            <mxRectangle width="90" height="30" as="alternateBounds" />
          </mxGeometry>
        </mxCell>
        <mxCell id="ikL45-JUl0GabrjHITGU-247" value="varchar&amp;nbsp;&lt;span style=&quot;box-sizing: inherit; color: mediumblue; font-family: Consolas, Menlo, &amp;quot;courier new&amp;quot;, monospace; font-size: 15px; background-color: rgb(255, 255, 255);&quot; class=&quot;sqlkeywordcolor&quot;&gt;NOT&lt;/span&gt;&lt;span style=&quot;font-family: Consolas, Menlo, &amp;quot;courier new&amp;quot;, monospace; font-size: 15px; background-color: rgb(255, 255, 255);&quot;&gt;&amp;nbsp;&lt;/span&gt;&lt;span style=&quot;box-sizing: inherit; color: mediumblue; font-family: Consolas, Menlo, &amp;quot;courier new&amp;quot;, monospace; font-size: 15px; background-color: rgb(255, 255, 255);&quot; class=&quot;sqlkeywordcolor&quot;&gt;NULL&lt;/span&gt;" style="shape=partialRectangle;connectable=0;fillColor=none;top=0;left=0;bottom=0;right=0;align=left;spacingLeft=6;overflow=hidden;whiteSpace=wrap;html=1;" vertex="1" parent="ikL45-JUl0GabrjHITGU-238">
          <mxGeometry x="120" width="240" height="30" as="geometry">
            <mxRectangle width="240" height="30" as="alternateBounds" />
          </mxGeometry>
        </mxCell>
      </root>
    </mxGraphModel>
  </diagram>
</mxfile>
